<svg xmlns="http://www.w3.org/2000/svg" width="32" height="32" viewBox="0 0 32 32">
<g transform="translate(0, 32) scale(0.003, -0.003)" fill="#0a2040">

<path d="M1745 9570 c-94 -13 -260 -52 -325 -76 -119 -45 -324 -153 -411 -218 -284 -212 -487 -484 -592 -796 -34 -99 -49 -167 -77 -335 -8 -52 -10 -662 -7 -2320 4 -2378 2 -2301 45 -2465 140 -532 563 -981 1077 -1144 251 -79 222 -78 1670 -74 l1270 3 0 210 0 210 -1290 6 c-879 4 -1308 9 -1345 17 -306 61 -578 227 -751 457 -82 110 -166 281 -206 420 -43 152 -43 149 -43 2395 0 2168 0 2208 37 2365 58 247 218 501 413 657 112 89 310 188 440 221 36 8 88 21 115 28 40 11 670 14 3130 16 2822 3 3088 2 3175 -13 131 -23 214 -46 293 -83 38 -18 79 -36 93 -41 59 -23 206 -130 284 -209 168 -168 259 -330 333 -591 21 -75 21 -81 24 -1542 l3 -1468 23 -5 c12 -3 108 -4 212 -3 l190 3 0 1495 c0 1401 -1 1500 -18 1575 -10 44 -22 94 -27 110 -6 17 -19 60 -29 97 -49 165 -188 403 -323 554 -283 314 -606 486 -1018 544 -76 11 -6289 11 -6365 0z"/>
<path d="M1877 8123 c-173 -180 -207 -219 -207 -240 0 -12 14 -33 33 -48 17 -15 82 -75 142 -133 61 -59 148 -143 195 -187 544 -513 1494 -1457 1488 -1477 -4 -11 -146 -14 -754 -18 l-749 -5 0 -210 0 -210 1118 -3 1117 -2 -2 1107 -3 1108 -210 0 -210 0 -3 -700 c-1 -416 -6 -703 -11 -708 -6 -6 -139 119 -348 329 -186 186 -408 406 -493 489 -85 82 -216 208 -290 280 -74 72 -225 216 -335 320 -110 104 -239 227 -286 273 -84 82 -107 102 -120 102 -4 0 -36 -30 -72 -67z"/>
<path d="M5572 4759 c-250 -36 -501 -234 -614 -485 -65 -143 -63 -100 -63 -1399 0 -1299 -2 -1256 62 -1399 94 -206 273 -374 487 -453 112 -42 130 -42 2206 -42 1224 -1 2012 3 2055 9 78 11 155 29 170 41 6 4 34 17 63 28 137 54 304 217 384 376 92 181 88 117 88 1448 0 1213 1 1191 -42 1332 -41 134 -172 307 -303 400 -120 85 -228 128 -365 145 -107 13 -4036 12 -4128 -1z m4069 -429 c73 -14 174 -64 218 -110 48 -49 90 -127 107 -198 19 -83 20 -2210 0 -2292 -36 -149 -150 -270 -285 -301 -47 -11 -4015 -11 -4062 0 -53 12 -135 60 -178 103 -48 47 -96 137 -110 206 -18 84 -15 2209 3 2284 18 73 58 146 109 197 46 47 150 102 211 112 69 11 3926 10 3987 -1z"/>
</g>
</svg>
